# xmcd
#
# Track frame offsets:
# 150
# 17158
# 46660
# 74032
# 90627
# 120256
# 144100
#
# Disc length: 2365 seconds
#
# Revision: 0
# Processed by: cddbd v1.5.2PL0 Copyright (c) Steve Scherf et al.
# Submitted via: Audion 3.0.2 (http://www.panic.com/audion/)
#
DISCID=52093b07
DTITLE=…E…Y…}…L…}…Y…E - ‚FÌ‡Íl
DYEAR=1900
DGENRE=
TTITLE0=«P
TTITLE1=«Q
TTITLE2=«R
TTITLE3=«S
TTITLE4=«T
TTITLE5=«U
TTITLE6=«V
EXTD=
EXTT0=
EXTT1=
EXTT2=
EXTT3=
EXTT4=
EXTT5=
EXTT6=
PLAYORDER=
